<?xml version="1.0" encoding="utf-8"?>

<svg xmlns="http://www.w3.org/2000/svg" xmlns:xlink="http://www.w3.org/1999/xlink" width="1740" height="869" preserveAspectRatio="xMidYMid" viewBox="0 0 1740 869" style="z-index:1;margin-right:-1.98113px;display:block;background-repeat-y:initial;background-repeat-x:initial;background-color:rgb(241, 242, 243);animation-play-state:paused" >
<g transform="translate(870,434.5) scale(1,1) translate(-870,-434.5)" style="transform:matrix(1, 0, 0, 1, 0, 0);animation-play-state:paused" >
<linearGradient id="lg-0.7618746593605397" x1="0" x2="1" y1="0" y2="0" style="animation-play-state:paused" >
<stop stop-color="#64aabe" offset="0" style="animation-play-state:paused" ></stop>

  
<stop stop-color="#5dc2b6" offset="1" style="animation-play-state:paused" ></stop></linearGradient>
<path d="M 0 0 L 0 702.995 Q 174 682.643 348 638.162 T 696 644.926 T 1044 621.421 T 1392 444.296 T 1740 412.246 L 1740 0 Z" fill="url(#lg-0.7618746593605397)" opacity="0.4" style="opacity:0.4;animation-play-state:paused" ></path>
<path d="M 0 0 L 0 786.101 Q 174 705.381 348 670.519 T 696 700.422 T 1044 561.854 T 1392 453.651 T 1740 376.889 L 1740 0 Z" fill="url(#lg-0.7618746593605397)" opacity="0.4" style="opacity:0.4;animation-play-state:paused" ></path>
<path d="M 0 0 L 0 740.879 Q 174 789.684 348 767.238 T 696 619.605 T 1044 509.128 T 1392 374.939 T 1740 358.957 L 1740 0 Z" fill="url(#lg-0.7618746593605397)" opacity="0.4" style="opacity:0.4;animation-play-state:paused" ></path>
<path d="M 0 0 L 0 858.311 Q 174 697.641 348 675.824 T 696 650.895 T 1044 461.09 T 1392 497.04 T 1740 379.708 L 1740 0 Z" fill="url(#lg-0.7618746593605397)" opacity="0.4" style="opacity:0.4;animation-play-state:paused" ></path>
<path d="M 0 0 L 0 820.619 Q 174 780.437 348 746.2 T 696 614.896 T 1044 587.804 T 1392 479.792 T 1740 344.006 L 1740 0 Z" fill="url(#lg-0.7618746593605397)" opacity="0.4" style="opacity:0.4;animation-play-state:paused" ></path></g></svg>